<?xml version="1.0" encoding="utf-8"?>
<!-- Generator: Adobe Illustrator 16.0.0, SVG Export Plug-In . SVG Version: 6.00 Build 0)  -->
<!DOCTYPE svg PUBLIC "-//W3C//DTD SVG 1.1//EN" "http://www.w3.org/Graphics/SVG/1.1/DTD/svg11.dtd">
<svg version="1.1" id="Calque_1" xmlns="http://www.w3.org/2000/svg" xmlns:xlink="http://www.w3.org/1999/xlink" x="0px" y="0px"
	 width="42.988px" height="80px" viewBox="0 0 42.988 80" enable-background="new 0 0 42.988 80" xml:space="preserve">
<g>
	<path fill-rule="evenodd" clip-rule="evenodd" d="M9.361,49.718c-2.504,1.875-4.572,3.476-6.706,4.984
		c-0.548,0.387-1.302,0.484-1.961,0.714c-0.243-0.715-0.726-1.441-0.693-2.145C0.33,46.267,2.725,40.06,7.219,34.634
		c0.647-0.781,1.076-1.999,1.081-3.017c0.039-7.535,1.455-14.815,5.234-21.298C15.721,6.566,19.049,3.478,21.94,0
		c4.812,4.434,7.703,9.534,9.794,15.118c1.996,5.334,2.971,10.86,2.932,16.579c-0.006,0.952,0.452,2.084,1.063,2.833
		c4.438,5.435,6.978,11.588,7.259,18.615c0.028,0.711-0.424,1.44-0.654,2.161c-0.703-0.231-1.509-0.315-2.092-0.721
		c-2.093-1.452-4.111-3.012-6.391-4.703c0.016,2.796-1.713,2.716-3.638,2.69c-5.977-0.077-11.957-0.069-17.934,0.02
		C10.485,52.617,9.167,52.398,9.361,49.718z M21.495,28.595c3.285-0.006,5.905-2.578,5.945-5.834
		c0.041-3.404-2.554-6.041-5.94-6.037c-3.297,0.003-5.904,2.562-5.94,5.827C15.521,25.953,18.123,28.601,21.495,28.595z"/>
	<path fill-rule="evenodd" clip-rule="evenodd" d="M20.319,80c-2.026-4.872-4.224-9.479-5.852-14.281
		c-1.31-3.865,1.354-7.967,5.173-8.873c4.147-0.984,8.164,1.472,9.074,5.59c0.156,0.71,0.31,1.525,0.117,2.191
		c-1.528,5.293-3.04,10.614-7.367,14.489C21.22,79.334,20.947,79.518,20.319,80z"/>
</g>
</svg>
